# xmcd CD database file
#
# Track frame offsets:
#	150
#	19926
#	41833
#	69110
#	92261
#	117886
#	145861
#	151351
#	159297
#	187454
#	190380
#
# Disc length: 3065 seconds
#
# Revision: 17
# Processed by: cddbd v1.5.2PL0 Copyright (c) Steve Scherf et al.
# Submitted via: CDex 2.00
#
DISCID=8f0bf70b
DTITLE=Pink Floyd - A momentary lapse of reason
DYEAR=1987
DGENRE=Progressive Rock
TTITLE0=Signs of life
TTITLE1=Learning to fly
TTITLE2=The dogs of war
TTITLE3=One slip
TTITLE4=On the turning away
TTITLE5=Yet another movie
TTITLE6=Round and around
TTITLE7=A new machine (part 1)
TTITLE8=Terminal frost
TTITLE9=A new machine (part 2)
TTITLE10=Sorrow
EXTD=YEAR: 1987
EXTT0=
EXTT1=
EXTT2=
EXTT3=
EXTT4=
EXTT5=
EXTT6=
EXTT7=
EXTT8=
EXTT9=
EXTT10=
PLAYORDER=
